<svg width="26" height="22" viewBox="0 0 26 22" fill="none" xmlns="http://www.w3.org/2000/svg">
<path fill-rule="evenodd" clip-rule="evenodd" d="M14.0686 0.119971C13.8864 0.199174 13.721 0.315255 13.5817 0.461565C13.4421 0.607505 13.3313 0.780876 13.2557 0.971748C13.1801 1.16262 13.1412 1.36724 13.1412 1.57389C13.1412 1.78055 13.1801 1.98517 13.2557 2.17604C13.3313 2.36691 13.4421 2.54028 13.5817 2.68622L19.6094 9H2.45876C2.03442 9 1.62745 9.21071 1.32739 9.58579C1.02734 9.96086 0.858765 10.4696 0.858765 11C0.858765 11.5304 1.02734 12.0391 1.32739 12.4142C1.62745 12.7893 2.03442 13 2.45876 13H19.6102L13.5817 19.3146C13.3002 19.6096 13.142 20.0097 13.142 20.4269C13.142 20.8441 13.3002 21.2443 13.5817 21.5393C13.8632 21.8343 14.2451 22 14.6432 22C15.0414 22 15.4232 21.8343 15.7048 21.5393L24.7007 12.1127C24.8404 11.9668 24.9512 11.7934 25.0267 11.6026C25.1023 11.4117 25.1412 11.2071 25.1412 11.0004C25.1412 10.7938 25.1023 10.5891 25.0267 10.3983C24.9512 10.2074 24.8404 10.034 24.7007 9.88808L15.7048 0.461565C15.5655 0.315255 15.4 0.199174 15.2179 0.119971C15.0357 0.0407677 14.8405 0 14.6432 0C14.446 0 14.2508 0.0407677 14.0686 0.119971Z" fill="#20113D"/>
</svg>
