<svg width="25" height="23" viewBox="0 0 25 23" fill="none" xmlns="http://www.w3.org/2000/svg"><path fill-rule="evenodd" clip-rule="evenodd" d="M13.5.18c-.181.08-.347.195-.486.342-.14.146-.25.319-.326.51a1.636 1.636 0 000 1.204c.076.191.186.364.326.51l6.028 6.314H1.89c-.424 0-.831.21-1.131.586-.3.375-.469.884-.469 1.414 0 .53.169 1.04.469 1.414.3.375.707.586 1.131.586h17.151l-6.028 6.315a1.61 1.61 0 00-.44 1.112c0 .417.158.817.44 1.112.282.295.663.461 1.062.461.398 0 .78-.166 1.061-.46l8.996-9.427c.14-.146.25-.32.326-.51a1.636 1.636 0 000-1.205 1.58 1.58 0 00-.326-.51L15.137.522A1.497 1.497 0 0014.65.18a1.44 1.44 0 00-1.15 0z" fill="#20113D"/></svg>