<svg width="26" height="22" viewBox="0 0 26 22" fill="none" xmlns="http://www.w3.org/2000/svg"><path fill-rule="evenodd" clip-rule="evenodd" d="M11.931.12c.182.08.348.195.487.342.14.146.25.319.326.51a1.638 1.638 0 010 1.204c-.075.19-.186.364-.326.51L6.39 9h17.151c.424 0 .831.21 1.131.586.3.375.47.884.47 1.414 0 .53-.17 1.04-.47 1.414-.3.375-.707.586-1.13.586H6.39l6.028 6.315c.282.295.44.695.44 1.112 0 .417-.158.817-.44 1.112a1.466 1.466 0 01-1.061.461c-.398 0-.78-.166-1.062-.46L1.3 12.112c-.14-.146-.25-.32-.326-.51a1.637 1.637 0 010-1.205c.076-.19.186-.364.326-.51L10.295.462c.14-.147.305-.263.487-.342a1.44 1.44 0 011.15 0z" fill="#20113D"/></svg>