<svg width="81" height="61" viewBox="0 0 81 61" fill="none" xmlns="http://www.w3.org/2000/svg"><path fill-rule="evenodd" clip-rule="evenodd" d="M29.315 37.753c-3.285.994-6.594.841-9.93-1.375-.255.322-.518.646-.783.974a64.28 64.28 0 00-1.966 2.516c-.47.675-.91 1.375-1.35 2.076-.438.7-.877 1.401-1.348 2.076-1.044 1.503-1.426 3.134-1.324 4.942.127 2.319-.79 3.49-3.055 3.898-4.66.841-8.834-2.624-8.86-7.337 0-.46-.008-.92-.016-1.379a50.419 50.419 0 01-.01-2.034c.043-1.8.824-3.364 1.601-4.922.147-.296.294-.59.436-.887.368-.762.738-1.523 1.11-2.284 1.376-2.826 2.753-5.653 3.957-8.543 1.769-4.236 4.426-7.879 7.093-11.534a274.83 274.83 0 001.664-2.3l.083-.099a1.59 1.59 0 00.223-.308c2.979-5.426 8.274-6.7 13.722-7.77 1.344-.26 2.676-.584 4.008-.909 1.545-.377 3.09-.753 4.648-1.027C42.07 1.017 44.998.61 47.9.508c3.437-.127 6.34 1.478 8.911 3.694-3.895-1.987-8.07-2.675-12.398-2.573-1.095.025-2.19.127-3.285.255-1.578.178-2.24 1.35-2.673 2.7-1.12 3.44-.89 6.828.306 10.241.288.82.468 1.686.647 2.548.121.584.242 1.166.397 1.732.196.705.388 1.412.58 2.12.703 2.592 1.407 5.187 2.347 7.688.382 1.045 1.655 2.064 2.75 2.471 4.302 1.554 8.707 2.395 13.264.841 5.728-1.962 8.681-8.076 6.517-13.757-.693-1.8-1.516-3.544-2.342-5.296a459.3 459.3 0 01-.433-.92c-.132-.283-.403-.51-.67-.732a7.446 7.446 0 01-.272-.236 39.426 39.426 0 00-1.017-.922c-.693-.614-1.391-1.233-1.987-1.931-.84-.994-.814-2.242-.076-3.312.713-1.044 1.858-1.3 3.055-1.095 1.858.305 3.055 1.452 3.666 3.159.585 1.656.025 3.082-1.426 4.33 1.91 1.58 2.546 3.847 3.106 6.09.212.848.326 1.724.44 2.602.133 1.02.266 2.042.553 3.027.48 1.632 1.055 3.242 1.631 4.853.495 1.382.99 2.766 1.424 4.166.565 1.792 1.085 3.599 1.605 5.405.44 1.531.881 3.062 1.348 4.581.26.847.594 1.673.927 2.498.188.466.376.931.55 1.4.558 1.481 1.821 2.149 3.074 2.81.233.123.466.246.694.374 1.17.663 1.782 1.529 1.476 2.904-.28 1.3-1.12 2.115-2.673 2.064-3.182-.127-6.339-.433-9.496-.764-.534-.051-1.095-.612-1.476-1.07a604.023 604.023 0 01-6.34-7.77c-1.45-1.81-2.52-3.796-3.08-6.063-.238-.933-.724-1.82-1.203-2.696a43.083 43.083 0 01-.401-.744c-.127-.255-.484-.484-.764-.535l-.2-.04c-1.614-.32-3.218-.64-4.611.78-.355.38-.937.583-1.444.76l-.008.003c-.89.306-1.298.866-.967 1.733 1.174 3.15 1.086 6.37.997 9.596-.044 1.6-.088 3.202.021 4.797.046.612.131 1.223.217 1.835.106.764.213 1.528.242 2.292.025.586-.23 1.427-.637 1.733-3.386 2.547-7.18 2.98-11.075 1.58-1.934-.714-3.233-2.115-3.538-4.51a170.64 170.64 0 00-2.393-14.801c-.367-1.835-1.25-3.587-2.11-5.294l-.283-.566c-2.444-4.865-3.132-9.91-2.266-15.31.713-4.484 1.68-8.764 4.659-12.305.614-.723 1.344-1.344 2.07-1.962.298-.253.595-.505.883-.764.043-.037.09-.073.137-.11.146-.111.295-.226.372-.4-3.92.051-7.46 1.147-10.947 2.777-3.268 1.5-5.14 4.174-7.036 6.881a77.186 77.186 0 01-1.29 1.806c-.177.255-.177.688-.152 1.045.374 3.566 1.748 6.815 3.12 10.058l.088.209c.273.618.415 1.302.558 1.986.058.273.115.547.18.816.153.688.306 1.401.357 2.114l.033.438c.072.935.146 1.895-.008 2.798-.305 1.605-.178 2.089 1.477 2.344l1.586.157.013.002h.008l.006.001c2.037.202 4.109.408 6.1.63zm12.271-23.918c-1.476-.612-2.087-2.064-2.291-3.77-.23-1.86 1.451-4.179 3.411-4.866 1.553-.535 3.743.33 4.608 1.86.51.916.713 1.655-.407 2.445-1.267.888-2.445 1.892-3.715 2.975-.516.44-1.047.892-1.606 1.356zm4.837 7.818c-.459 2.013.84 3.617 2.418 3.49.143-.456.28-.902.414-1.342.25-.815.493-1.609.757-2.403a5.14 5.14 0 01.264-.584c.114-.228.227-.455.296-.69.204-.738.433-1.706-.509-1.936-.687-.153-1.782.077-2.215.56-.687.765-1.196 1.86-1.425 2.905zM55.51 18.8c.114-.151.219-.317.322-.48.243-.383.477-.752.798-.895.331-.153 1.044.152 1.4.458l.237.203c.844.724 1.704 1.462 2.31 2.37.33.535.203 1.529-.026 2.191-.178.484-.84.994-1.35 1.096-.33.05-.865-.56-1.196-.968a22.006 22.006 0 01-1.527-2.166c-.247-.335-.432-.718-.65-1.167-.097-.2-.2-.414-.318-.642zm1.336 9.154l.014-.01a3.769 3.769 0 00-.026-.135 1.881 1.881 0 01-.05-.374 5.55 5.55 0 01-.408-.124c-.271-.09-.543-.181-.814-.181-1.044 0-2.088.025-3.106.152-.408.052-.891.332-1.07.637-.101.179.23.74.51.994.148.149.367.202.588.256.158.038.318.077.456.151.28.153.789.46.763.587-.102.356-.356.713-.662.968-.148.131-.36.178-.62.235a5.299 5.299 0 00-.474.121c.988-.065 1.904-.13 2.82-.194l1.584-.111c-.3-.134-.645-.175-.977-.214-.68-.08-1.305-.153-1.39-1.01 1.038-.633 1.95-1.19 2.861-1.748z" fill="#20113D"/></svg>