<svg width="43" height="40" viewBox="0 0 43 40" fill="none" xmlns="http://www.w3.org/2000/svg"><path d="M13.128 36.047c2.89-.66 4.716-2.515 6.567-4.485-.25-.07-.442-.128-.633-.174-2.543-.626-4.883-1.692-7.033-3.141a10.708 10.708 0 01-3.236-3.385c-.107-.173-.19-.359-.274-.544-.024-.047-.024-.105-.048-.267.812.243 1.576.475 2.328.707l.06-.058c-.084-.07-.155-.139-.239-.197-.979-.614-1.934-1.252-2.925-1.831-1.135-.673-2.329-1.252-3.427-1.948-1.469-.938-2.508-2.26-3.26-3.79a.69.69 0 01-.06-.208c-.012-.035 0-.082 0-.186 1.218.51 2.353 1.229 3.762 1.101C1.94 16.1.22 13.944.34 10.698c1.181 1.264 2.34 2.516 3.498 3.767l.084-.08c-.478-.905-1.04-1.786-1.398-2.736a12.873 12.873 0 01-.716-2.99c-.12-1.01-.024-2.04-.024-3.06.06-.012.12-.012.167-.024a935.477 935.477 0 011.684 3.698c.06 0 .12-.012.18-.012-.025-2.237.226-4.428 1.289-6.433a.58.58 0 01.143.012c0 .498.024.985 0 1.483-.131 2.446.836 4.532 2.28 6.433.968 1.264 2.162 2.319 3.452 3.269 1.695 1.252 3.594 2.167 5.492 3.071 1.767.835 3.32 1.97 4.776 3.246.884.777 1.803 1.507 2.71 2.26.252.209.502.44.789.696.466-1.044.896-2.017 1.325-3.002 1.04-2.342 2.603-4.312 4.538-6.016 1.54-1.356 3.105-2.666 4.645-4.01 2.09-1.832 3.39-4.104 3.809-6.816.155-.962.083-1.97.12-2.944 0-.162 0-.336.059-.51.752 1.67.967 3.43 1.146 5.262.74-1.46 1.469-2.92 2.21-4.393.059.012.119.023.166.035-.083 1.495-.095 2.99-.274 4.474-.18 1.472-.526 2.921-.8 4.324.37-.557.8-1.194 1.301-1.925.036 1.426-.012 2.713-.633 3.93-.608 1.205-1.588 2.11-2.65 3.002.585.116 1.05-.081 1.504-.302.442-.208.848-.463 1.361-.753-.047.22-.071.37-.119.51-.645 1.692-1.648 3.153-3.152 4.23-.92.673-1.899 1.264-2.806 1.936-.574.43-.98.696-1.003 1.287.382-.128.752-.244 1.194-.383-.74 2.458-2.699 3.964-4.406 5.726.167.07.298.116.43.174.847.336 1.564.846 2.053 1.611.37.568.454 1.171.299 1.832-.048.197.071.463.203.637.406.603.465 1.217.107 1.843-.346.614-.92.916-1.671.962.596-1.043.573-1.275-.24-1.831-.083.429-.167.834-.25 1.263-.537-.429-1.003-.939-1.588-1.24-.597-.301-1.302-.383-2.018-.58.036.151.036.244.071.325.526 1.287 1.015 2.596 1.613 3.86.214.463.644.857 1.038 1.205.37.325.633.209.776-.266.096-.337.132-.684.191-1.02.06-.302.227-.43.442-.337.048.279.108.499.12.72a2.69 2.69 0 01-.036.694c-.048.198-.18.383-.275.569.024.034.06.057.084.092.322-.208.657-.417.967-.637.155-.116.275-.267.418-.394.561-.499.836-.464 1.23.197-.215-.024-.406-.058-.61-.082-.035.858-.966.847-1.348 1.426.453-.023.86-.058 1.265-.058.621 0 .872.278.753.893-.18-.417-.478-.36-.765-.244-.609.244-1.23.163-1.85.082-.681-.093-1.29 0-1.875.394-.382.266-.776.521-1.326.405-.119-.023-.334.36-.49.545-.25-.325-.238-.638.18-.892.263-.163.573-.244.86-.36.179-.07.37-.127.525-.243.346-.255.346-.418.012-.672-.824-.65-1.648-1.287-2.472-1.936a.531.531 0 00-.226-.116c-1.087-.093-1.684-.788-2.138-1.634-.095-.186-.167-.44-.43-.279-.143.093-.298.371-.25.51.25.916.8 1.635 1.647 2.098.37-.058.442-.938.967-.405-.047.197-.083.313-.107.429.143.023.299.08.442.07.239 0 .477-.047.716-.07l.036.15c-.167.081-.334.163-.561.278 1.146.058 1.146.058 1.194.65-.37-.348-.728-.07-1.087-.024-.812.093-1.373.464-1.671 1.24-.096.244-.359.418-.597.684.012.035.047.151.071.279-.513-.174-.633-.418-.382-.858.191-.336.442-.65.669-.974.203-.29.203-.533-.18-.695-.62-.267-1.146-.696-1.874-.765-.275-.023-.513-.383-.788-.615-.131.21-.31.453-.454.73-.418.824-1.122 1.322-2.006 1.554-2.782.742-5.409.324-7.857-1.148-.406-.231-.704-.59-1.11-.938z" fill="#F58021"/></svg>