<svg width="20" height="20" viewBox="0 0 20 20" fill="none" xmlns="http://www.w3.org/2000/svg"><path d="M10.005 10.992a3.15 3.15 0 001.716-.506c.507-.33.903-.799 1.137-1.347a2.926 2.926 0 00.176-1.735 2.977 2.977 0 00-.846-1.537 3.116 3.116 0 00-1.58-.822 3.17 3.17 0 00-1.785.17 3.07 3.07 0 00-1.385 1.107 2.944 2.944 0 00-.52 1.668c0 .796.325 1.56.904 2.123.579.563 1.364.88 2.183.88zm0-4.003c.204 0 .403.059.572.169.17.11.301.266.38.449a.975.975 0 01-.224 1.09 1.056 1.056 0 01-1.122.217 1.024 1.024 0 01-.462-.368.981.981 0 01.128-1.264c.193-.188.455-.293.728-.293zm9.87 9.168a9.963 9.963 0 00-2.665-4.274 7.833 7.833 0 001.028-3.986 7.841 7.841 0 00-1.14-3.957 8.128 8.128 0 00-3.008-2.885A8.415 8.415 0 0010.005 0c-1.433 0-2.84.363-4.084 1.055A8.129 8.129 0 002.912 3.94a7.841 7.841 0 00-1.14 3.957A7.832 7.832 0 002.8 11.883a9.865 9.865 0 00-2.676 4.274 2.92 2.92 0 00-.076 1.371c.084.457.276.888.56 1.26.29.38.667.687 1.102.897.434.21.914.319 1.4.315H16.9a3.16 3.16 0 001.394-.317 3.07 3.07 0 001.097-.894 2.96 2.96 0 00.56-1.261 2.922 2.922 0 00-.076-1.371zm-9.87-14.172a6.3 6.3 0 013.431 1.012 6.044 6.044 0 012.275 2.695 5.851 5.851 0 01.351 3.47 5.955 5.955 0 01-1.69 3.074 6.231 6.231 0 01-3.162 1.643 6.338 6.338 0 01-3.568-.341 6.142 6.142 0 01-2.772-2.212A5.888 5.888 0 013.83 7.99c0-1.593.65-3.12 1.808-4.246a6.266 6.266 0 014.367-1.76zm7.74 15.603a1.022 1.022 0 01-.37.305c-.147.071-.31.107-.474.105H3.11a1.053 1.053 0 01-.473-.105.987.987 0 01-.525-1.176 7.811 7.811 0 011.935-3.223 8.243 8.243 0 002.718 1.835 8.435 8.435 0 006.483 0 8.244 8.244 0 002.718-1.835 7.812 7.812 0 011.935 3.223.974.974 0 01-.155.87z" fill="#fff"/></svg>