<svg width="60" height="46" viewBox="0 0 60 46" fill="none" xmlns="http://www.w3.org/2000/svg"><path d="M20.825 20.52c2.24 1.04 3.96 2.6 5.16 4.68 1.28 2 1.92 4.36 1.92 7.08 0 4-1.28 7.24-3.84 9.72-2.56 2.48-5.84 3.72-9.84 3.72s-7.28-1.24-9.84-3.72c-2.56-2.48-3.84-5.72-3.84-9.72 0-1.84.24-3.68.72-5.52.48-1.84 1.56-4.56 3.24-8.16L12.185.96h14.28l-5.64 19.56zm31.44 0c2.24 1.04 3.96 2.6 5.16 4.68 1.28 2 1.92 4.36 1.92 7.08 0 4-1.28 7.24-3.84 9.72-2.56 2.48-5.84 3.72-9.84 3.72s-7.28-1.24-9.84-3.72c-2.56-2.48-3.84-5.72-3.84-9.72 0-1.84.24-3.68.72-5.52.48-1.84 1.56-4.56 3.24-8.16L43.625.96h14.28l-5.64 19.56z" fill="#00A092"/></svg>