<svg width="26" height="22" viewBox="0 0 26 22" fill="none" xmlns="http://www.w3.org/2000/svg"><path fill-rule="evenodd" clip-rule="evenodd" d="M14.069.12c-.183.08-.348.195-.487.342-.14.146-.25.319-.326.51a1.636 1.636 0 000 1.204c.075.19.186.364.326.51L19.609 9H2.46c-.425 0-.832.21-1.132.586C1.027 9.96.86 10.47.86 11c0 .53.168 1.04.468 1.414.3.375.707.586 1.132.586h17.15l-6.028 6.315a1.61 1.61 0 00-.44 1.112c0 .417.158.817.44 1.112.281.295.663.461 1.061.461.398 0 .78-.166 1.062-.46l8.996-9.427c.14-.146.25-.32.326-.51a1.636 1.636 0 000-1.205 1.575 1.575 0 00-.326-.51L15.705.462a1.498 1.498 0 00-.487-.342 1.44 1.44 0 00-1.15 0z" fill="#20113D"/></svg>