<svg width="50" height="50" viewBox="0 0 50 50" fill="none" xmlns="http://www.w3.org/2000/svg"><path fill-rule="evenodd" clip-rule="evenodd" d="M50 25c0 13.807-11.193 25-25 25S0 38.807 0 25 11.193 0 25 0s25 11.193 25 25zM6.661 36.281c-.364.455-.741.925-1.14 1.413.434.029.756.065 1.025.095.197.022.366.041.53.051.837 0 1.775-.04 2.729-.082 1.378-.06 2.791-.12 3.984-.064.66.26.876.405 1.283.678.088.06.185.124.298.198 5.569 3.648 11.454 4.28 17.242 1.094 1.386-.778 3.794-1.92 3.794-1.92s2.796.048 4.11.12c.85.05 1.702.025 2.553 0 .222 0 .437-.023.702-.052.2-.023.427-.048.709-.069a24.311 24.311 0 01-.435-.611 8.652 8.652 0 00-.465-.63l-.328-.412c-.743-.937-1.493-1.883-2.299-2.773-.68-.754-.802-1.362-.413-2.359C44.6 20.501 37.28 9.071 26.119 8.366 14.08 7.588 5.204 19.626 9.533 30.91c.39 1.02.243 1.677-.438 2.456-.829.914-1.6 1.874-2.434 2.915zm24.202-17.453c-1.91 2.31-3.844 4.649-5.839 7.047-1.648-1.987-3.273-3.94-4.882-5.873a3131.066 3131.066 0 01-4.82-5.8c4.133-4.499 13.302-5.617 19.43-.073a4830.048 4830.048 0 00-3.89 4.7zm-5.887 18.575s3.623-5.059 3.964-5.57c1.377 1.227 2.666 2.38 3.924 3.505l1.086.97c-3.94 4.135-12.963 4.67-17.948.073 1.654-1.483 3.307-2.967 5.131-4.596.584 1.021 3.843 5.618 3.843 5.618zm-13.424-7.028c-1.41-2.287-1.557-7.126-.268-10.288l.532.878c.994 1.64 1.935 3.194 2.824 4.765.122.218.073.73-.097.948-.728.97-1.5 1.899-2.28 2.838-.237.285-.474.57-.711.859zm27.261-10.288c1.143 3.575 1.07 6.858-.194 10.385l-.236-.285c-1.064-1.285-1.966-2.374-2.804-3.485-.17-.243-.243-.73-.097-.972a151.15 151.15 0 012.35-4.002c.318-.531.645-1.076.981-1.64z" fill="#fff"/></svg>