<svg width="37" height="61" viewBox="0 0 37 61" fill="none" xmlns="http://www.w3.org/2000/svg"><path fill-rule="evenodd" clip-rule="evenodd" d="M18.059.51c.941-.053 1.839.14 2.762.465-.03.087-.059.173-.086.257-.068.204-.132.4-.219.586-.265.575-.536 1.15-.806 1.725-.27.575-.54 1.15-.806 1.725v.002c-.144.31-.213.461-.33.525-.112.06-.266.042-.566.007l-.054-.007c-.305-.035-.488-.167-.531-.465-.019-.126-.042-.252-.065-.379-.065-.35-.13-.702-.092-1.043.096-.845.252-1.684.408-2.522v-.001l.124-.673c.017-.08.165-.194.261-.202zm-5.872 2.845c.578.866 1.143 1.714 1.733 2.546.218.316.514.597.994.404.732-.281.915-.474.697-1.247-.261-.94-.1-1.842.063-2.749l.05-.28a2.594 2.594 0 00-.026-1.036c-.035-.158-.349-.395-.47-.37-1.334.334-2.502.993-3.617 1.871l.576.861zm-3.423 6.696c.61.449 1.223.899 1.846 1.355-.21 1.01-.75 1.58-1.804 1.694-1.455.15-2.684-.447-3.79-1.343-.061-.053-.088-.246-.044-.333l.191-.431v-.002l.002-.002v-.002c.283-.638.567-1.277.879-1.899.084-.175.22-.32.352-.46.06-.064.119-.127.17-.19.74.54 1.467 1.074 2.196 1.61l.001.002h.001zm.39 5.366a1028.11 1028.11 0 01-4.959-1.256 28.45 28.45 0 01-.12.63c-.077.396-.157.807-.22 1.223-.06.393-.099.79-.139 1.195-.024.245-.049.494-.078.745 1.377.694 2.788.887 4.182.08.994-.563 1.386-1.493 1.334-2.617zm-5.455 4.655c-.262 1.387-.053 2.695.435 3.968.044.106.157.22.262.255 2.056.693 4.374-.694 4.697-2.564.043-.255.06-.527.043-.781-.104-1.116-.314-1.273-1.394-1.116l-.311.046c-.742.109-1.484.218-2.234.28-.329.023-.666-.01-1.014-.045-.16-.016-.32-.032-.484-.043zm5.855 8.234c.698-1.493.48-2.564-.697-3.495-1.22.931-2.631 1.274-4.147 1.326-.105 0-.28.15-.305.264-.236 1.115.095 2.107.714 3.02.05.072.144.11.251.151.063.025.13.05.194.086l-.09.06c-.071.05-.141.098-.215.142-1.586.957-2.867 2.213-3.625 3.925-.994 2.256-1.351 4.583-.454 6.98.162.431.31.87.459 1.308v.002c.124.365.247.729.378 1.087a5.881 5.881 0 01.122 3.67c-1.028 3.539-.061 6.787 1.307 9.992.12.268.316.51.505.744l.01.011c.26.325.6.43 1.01.29.41-.15.706-.421.688-.852a8 8 0 00-.217-1.642c-.1-.425-.223-.847-.345-1.268a25.972 25.972 0 01-.344-1.269c-.279-1.203.079-2.195 1.054-2.941l.123-.094h.001c.086-.068.171-.134.26-.187 1.473-.852 2.379-2.187 3.128-3.67.21-.422.48-.815.75-1.207.124-.18.248-.359.366-.54l.104.052c.052.246.106.492.16.737.16.738.32 1.476.45 2.213.584 3.205 2.466 5.62 4.645 7.867.215.225.497.39.764.547l.011.006c.366.22.74.22 1.09-.07.357-.299.487-.676.33-1.098a5.838 5.838 0 00-.6-1.158 23.702 23.702 0 00-.8-1.075c-.235-.303-.47-.606-.69-.919-1.038-1.457-1.081-2.484-.062-3.942.81-1.168 1.368-2.44 1.865-3.82.139.066.275.126.408.185h.001c.227.1.446.197.654.307 2.144 1.177 3.46 3.03 4.244 5.304.318.907.593 1.83.867 2.753l.213.715a6.3 6.3 0 001.22 2.256l.638.76a337.427 337.427 0 003.005 3.543c.287.333.636.65 1.01.886.68.43 1.342.299 1.97-.307.453-.439.531-.983.122-1.677-.235-.4-.538-.761-.836-1.118l-.166-.199a4.641 4.641 0 00-.584-.588c-1.77-1.52-2.205-3.53-2.126-5.734.012-.37.057-.74.1-1.1.017-.135.034-.27.048-.401l.805-.156h.002c.485-.095.951-.186 1.38-.266.163.361.314.73.467 1.1.33.798.66 1.6 1.102 2.334.648 1.08 1.417 2.085 2.185 3.09.182.237.363.474.542.711.305.404.715.73 1.272.598.297-.07.523-.879.375-1.45-.14-.535-.305-1.08-.575-1.553-1.203-2.134-1.665-4.478-1.987-6.858-.166-1.211-.88-1.756-2.083-1.519-2.248.448-4.505.668-6.797.466a4.414 4.414 0 01-.47-.088c-1.62-.386-2.266-1.897-1.43-3.363a.544.544 0 01.097-.15c.779-.79 1.201-1.774 1.625-2.761.15-.349.3-.698.466-1.04.331-.667.959-1.23 1.56-1.721.74-.597 1.647-.896 2.58-1.097.13-.027.322-.15.348-.255.026-.123-.079-.351-.183-.404a29.955 29.955 0 01-.201-.097c-.4-.194-.812-.395-1.237-.447-.697-.088-1.42-.07-2.126 0-.785.079-1.482-.167-2.135-.483-.697-.334-1.36-.79-1.987-1.247-1.717-1.256-3.45-2.476-5.42-3.31-2.109-.905-4.296-1.203-6.562-.87a2.348 2.348 0 00-.549.018zm9.559-1.69c-.697.439-1.455.632-2.274.632-.785-.026-1.534-.184-2.17-.676-.706-.535-.976-1.326-.567-2.09.262-.48.626-.902.99-1.323h.001v-.001h.001c.12-.14.242-.28.359-.423.061-.07.21-.096.314-.088 1.89.185 3.355 1.493 3.694 3.144.088.404-.026.623-.348.825zM9.65 4.032c.993.755 2.387 2.476 3.337 4.1l-.098.125c-.225.287-.437.557-.642.841-.183.255-.401.316-.715.22C9.92 8.8 8.813 7.64 7.646 6.394c.679-.798 1.34-1.58 2.002-2.36l.002-.002zm13.594 5.392c.718-.623 1.592-.732 2.472-.842.2-.025.398-.05.595-.08.453-.07.906-.202 1.342-.343.096-.035.235-.21.218-.298-.13-.87-.401-1.686-1.124-2.248a.7.7 0 00-.462-.14c-1.063.167-2.048.535-2.928 1.159-.105.079-.21.158-.305.246-.906.842-.845 1.8.192 2.546zm.34 14.406c-.88-1.58-4.714-3.09-5.708-2.24 0 .027 0 .071.018.08 1.185 1.036 2.039 2.344 2.867 3.67.2.325.4.343.714.237.732-.246 1.569-.93 2.109-1.747zm5.855 17.04c-.13.677-.401.879-1.098.897a9.713 9.713 0 00-.367-.06c-.25-.037-.5-.074-.74-.151-.784-.237-1.124-.79-.976-1.607.053-.299.166-.588.297-.86.47-.957 1.246-1.634 2.134-2.178a3.013 3.013 0 011.02-.36c.161-.031.34.013.517.057.073.018.144.036.215.048a3.11 3.11 0 00-.037.201c-.03.174-.058.35-.146.476-.505.728-.654 1.545-.697 2.405a8.182 8.182 0 01-.122 1.133zm-1.612-1.281a.734.734 0 00-.715.729.713.713 0 00.001.002c0-.386.331-.729.715-.729a.707.707 0 01-.001-.002zm-4.322-27.728l1.013.084c1.327.11 2.628.218 3.928.337.383.036.505-.114.54-.474.07-.772-.191-1.378-.836-1.8-1.09-.702-3.033-.58-4.026.264-.505.421-.723.957-.619 1.589zm-.784-10.106c1.046.57 2.04 1.15 2.736 2.142-1.603.949-3.154 1.87-4.705 2.801-.288-.456-.322-.764-.113-1.405.397-1.234 1.15-2.263 1.913-3.306l.001-.002.168-.23zm-2.37 18.24c1.087.372 1.96 1.045 2.85 1.73.538.415 1.081.833 1.681 1.193l.244-.385.001-.002v-.001c.325-.512.641-1.012.94-1.517.044-.07.018-.272-.052-.325-1.133-.895-2.352-1.615-3.843-1.686-.74-.017-1.402.176-1.82.992zm8.287-5.83c-.017.719-.035 1.456-.496 2.061-.181-.06-.36-.12-.538-.181-.473-.16-.937-.317-1.405-.451a60.638 60.638 0 00-2.493-.606c-.313-.07-.383-.228-.34-.527.114-.825.68-1.334 1.639-1.37 1.228-.052 2.361.36 3.468.852.078.035.165.15.165.22v.002zm-3.077 26.723c-.186.23-.353.43-.508.619-.172.208-.33.4-.486.593-.053.066-.109.132-.164.197a3.13 3.13 0 00-.367.488c-.323.562-.166 1.176.427 1.43.47.203.993.334 1.498.387a9.9 9.9 0 003.991-.377c-.087-.615-.366-.896-.976-.957a16.318 16.318 0 00-.919-.048c-.185-.007-.37-.013-.553-.023-1.185-.07-1.377-.254-1.612-1.413a3.324 3.324 0 00-.206-.587c-.042-.1-.085-.202-.125-.309zm1.099-21.466c-1.395-.73-2.815-1.361-4.392-1.678.226-1.123.967-1.624 2.135-1.475 1.176.14 2.222.633 3.18 1.309.096.07.218.228.192.298-.192.492-.392.992-.645 1.458-.052.088-.357.149-.47.088zm3.825 19.606c0 .913.149 1.063.846.93.287-.052.592-.175.828-.35.906-.676 1.159-2.31.531-3.214-.148-.21-.279-.298-.523-.123-1.01.746-1.638 1.686-1.682 2.757z" fill="#20113D"/></svg>