<svg width="65" height="61" viewBox="0 0 65 61" fill="none" xmlns="http://www.w3.org/2000/svg"><path d="M19.858 54.572c4.334-.99 7.075-3.773 9.851-6.728-.376-.105-.663-.191-.95-.261-3.814-.939-7.325-2.538-10.549-4.712-1.988-1.338-3.618-3.025-4.854-5.077-.161-.26-.286-.538-.412-.817-.036-.07-.036-.156-.071-.4 1.218.366 2.364.713 3.492 1.061l.09-.087c-.125-.104-.233-.209-.358-.296-1.47-.92-2.902-1.877-4.389-2.747-1.701-1.008-3.492-1.877-5.14-2.92-2.203-1.409-3.761-3.39-4.89-5.686-.053-.104-.071-.208-.09-.313-.017-.052 0-.121 0-.278 1.828.765 3.53 1.843 5.643 1.652C3.075 24.65.496 21.417.675 16.548c1.773 1.896 3.51 3.773 5.248 5.651l.126-.122c-.717-1.356-1.559-2.677-2.096-4.103a19.31 19.31 0 01-1.075-4.486c-.179-1.512-.036-3.06-.036-4.59.09-.017.18-.017.251-.034.842 1.843 1.684 3.686 2.526 5.546.09 0 .179-.017.268-.017-.035-3.356.34-6.642 1.935-9.65.071 0 .143 0 .215.018 0 .747.035 1.477 0 2.225-.197 3.669 1.253 6.798 3.42 9.65 1.451 1.895 3.243 3.477 5.177 4.902 2.543 1.878 5.391 3.252 8.239 4.608 2.65 1.252 4.98 2.955 7.164 4.868 1.326 1.165 2.705 2.26 4.066 3.39.376.313.752.66 1.182 1.043a575.642 575.642 0 001.988-4.503c1.559-3.512 3.905-6.467 6.807-9.023 2.31-2.034 4.656-3.999 6.967-6.016 3.134-2.747 5.087-6.155 5.714-10.223.232-1.443.125-2.956.179-4.416 0-.243 0-.504.09-.765 1.128 2.504 1.45 5.146 1.719 7.893 1.11-2.19 2.203-4.381 3.313-6.59.09.018.18.036.251.053-.125 2.243-.143 4.486-.412 6.711-.269 2.208-.788 4.382-1.2 6.485.555-.834 1.2-1.79 1.952-2.886.054 2.139-.018 4.068-.949 5.894-.913 1.808-2.382 3.164-3.976 4.503.877.174 1.576-.122 2.256-.452.663-.313 1.272-.695 2.042-1.13-.071.33-.107.556-.179.765-.967 2.538-2.471 4.73-4.728 6.346-1.38 1.008-2.848 1.895-4.21 2.904-.859.643-1.468 1.043-1.504 1.93.573-.192 1.129-.366 1.791-.574-1.11 3.685-4.048 5.946-6.609 8.588.25.105.448.174.645.261 1.272.504 2.346 1.27 3.08 2.417.556.852.681 1.756.448 2.747-.071.295.108.695.305.956.609.904.698 1.826.161 2.765-.52.921-1.38 1.373-2.508 1.443.896-1.565.86-1.913-.358-2.747-.125.643-.25 1.251-.376 1.895-.806-.644-1.504-1.409-2.382-1.86-.895-.453-1.952-.574-3.027-.87.054.226.054.365.107.487.789 1.93 1.523 3.894 2.418 5.79.323.695.968 1.286 1.559 1.808.555.486.95.313 1.164-.4.143-.504.197-1.026.287-1.53.09-.452.34-.644.662-.504.072.417.162.747.18 1.078.017.347.017.712-.054 1.043-.072.295-.269.574-.412.852.036.052.09.087.125.139.484-.313.985-.626 1.45-.956.234-.174.413-.4.628-.592.842-.747 1.254-.695 1.845.296-.323-.035-.61-.087-.914-.122-.054 1.287-1.45 1.27-2.024 2.139.68-.035 1.29-.087 1.899-.087.931 0 1.307.417 1.128 1.339-.268-.626-.716-.54-1.146-.366-.914.366-1.845.244-2.776.122-1.021-.139-1.935 0-2.812.591-.574.4-1.165.783-1.989.609-.179-.035-.501.539-.734.817-.376-.487-.358-.956.269-1.339.394-.243.86-.365 1.29-.539.268-.104.555-.191.788-.365.519-.382.519-.626.017-1.008-1.236-.974-2.471-1.93-3.707-2.904a.795.795 0 00-.34-.174c-1.63-.139-2.526-1.182-3.207-2.451-.143-.278-.25-.66-.644-.417-.215.139-.448.556-.377.765.377 1.373 1.2 2.451 2.472 3.146.556-.086.663-1.408 1.451-.608-.072.296-.125.47-.161.643.215.035.448.122.662.105.359 0 .717-.07 1.075-.105.018.07.036.157.054.226-.25.122-.502.244-.842.418 1.72.087 1.72.087 1.791.973-.555-.521-1.092-.104-1.63-.034-1.218.139-2.06.695-2.507 1.86-.143.365-.538.626-.896 1.026.018.052.072.226.108.417-.77-.26-.95-.626-.574-1.287.287-.504.663-.973 1.003-1.46.305-.435.305-.8-.268-1.043-.931-.4-1.72-1.043-2.812-1.148-.412-.035-.77-.574-1.182-.921-.197.313-.466.678-.68 1.095-.628 1.234-1.684 1.982-3.01 2.33-4.173 1.113-8.114.487-11.785-1.721-.61-.348-1.057-.887-1.666-1.409z" fill="#20113D"/></svg>