<svg width="28" height="26" viewBox="0 0 28 26" fill="none" xmlns="http://www.w3.org/2000/svg"><path fill-rule="evenodd" clip-rule="evenodd" d="M15.335.746c-.205.09-.392.22-.549.385-.157.164-.282.36-.367.574a1.844 1.844 0 000 1.357c.085.215.21.41.367.574l6.79 7.111H2.258c-.478 0-.936.238-1.274.66-.338.423-.528.995-.528 1.593 0 .597.19 1.17.528 1.593.338.422.796.66 1.274.66h19.317l-6.79 7.111a1.816 1.816 0 00-.495 1.253c0 .47.178.92.495 1.253.317.332.748.519 1.196.519.448 0 .878-.187 1.195-.519L27.31 14.253c.157-.164.282-.36.367-.574a1.844 1.844 0 000-1.357 1.778 1.778 0 00-.367-.574L17.177 1.13a1.685 1.685 0 00-.548-.385 1.621 1.621 0 00-1.294 0z" fill="#F58021"/></svg>