<svg width="46" height="40" viewBox="0 0 46 40" fill="none" xmlns="http://www.w3.org/2000/svg"><path fill-rule="evenodd" clip-rule="evenodd" d="M31.688 17.634l.002.004c.415.888.83 1.776 1.26 2.703l-.331.276c-.254.211-.515.43-.788.637-.303.23-.603.462-.904.694-.741.574-1.482 1.147-2.257 1.668-2.791 1.881-5.87 2.645-9.182 2.345-.81-.07-1.664-.362-2.005-.606.197-1.413.385-2.788.574-4.163v-.002l.001-.007a.794.794 0 00-.072-.02c-.024-.005-.049-.01-.072-.019a161.9 161.9 0 00-.22.467c-.181.387-.362.773-.551 1.155-.49 1.008-.82 2.08-1.149 3.153-.092.3-.184.6-.28.9-.606 1.866-1.687 3.298-3.525 3.999-.09.04-.166.197-.204.315-.074.245-.14.492-.206.74-.089.333-.177.666-.286.991-.416 1.26-1.195 2.236-2.246 2.984-.47.33-.938.669-1.384 1.03-.386.308-.37.442.007.749l.222.178c.238.188.473.375.686.585.348.346.507.787.378 1.291-.03.118-.204.276-.31.276-2.48.015-4.97.015-7.45.007-.09 0-.22-.031-.272-.094a29.27 29.27 0 00-.232-.288c-.28-.345-.561-.692-.774-1.074-.136-.244-.152-.653-.06-.929.877-2.778 2.004-5.415 4.129-7.438.09-.086.144-.275.151-.41.053-1.998.28-3.982.772-5.91.423-1.67.877-3.338 1.679-4.873 1.475-2.802 3.38-5.14 6.308-6.4 2.518-1.078 4.976-.912 7.374.363.33.176.627.419.917.655.136.11.271.22.406.32-.272-.613-.748-1.117-1.263-1.581.485-.192.97-.378 1.456-.563 2.145-.818 4.272-1.63 6.153-2.94.083.3.164.603.246.907.105.392.211.785.322 1.179.03.094.09.18.166.26-.151-.976-.151-1.952.204-2.85.333-.85.734-1.708 1.248-2.448 1.263-1.794 2.783-3.353 4.478-4.715a5.13 5.13 0 01.211-.165c.122-.08.242-.167.363-.253.585-.418 1.177-.84 1.93-.684 1.24.252 2.276.93 2.987 2.04.204.314.438.534.764.652.847.307 1.482.835 1.89 1.693.148.313.362.59.576.869.103.134.206.268.302.406.197.283.234.52.015.85-.182.275-.272.645-.325.984-.068.401.083.661.491.881 1.067.567 1.687 1.835 1.097 3.117a9.677 9.677 0 00-.272.646c-.393 1.055-1.142 1.425-2.17 1.055l-.053-.018c-.052-.018-.105-.036-.145-.053a44.46 44.46 0 01-.582.826 1.288 1.288 0 00-.073-.084c-.026-.028-.04-.044-.04-.057.06-.677-.333-1.079-.772-1.488-2.05-1.92-4.56-1.574-6.278-.464.193-.041.385-.086.575-.13a14.86 14.86 0 011.09-.225c2.178-.314 4.069.7 5.075 2.732.695 1.4 1.187 2.865 1.066 4.486l-.001.02c-.023.317-.047.663-.173.94-.439.977-.303 1.96-.06 2.929l.044.18c.227.92.46 1.864.893 2.677 1.672 3.125 1.808 6.502 1.687 9.926-.053 1.472-.507 2.778-1.672 3.73-.65.536-1.346.906-2.216.835-.4-.031-.809-.04-1.21 0-.756.087-1.278-.307-1.724-.858-.484-.59-.704-1.275-.568-2.047.038-.204.182-.456.348-.55.21-.116.362.044.517.207l.073.076c.233.235.541.407.835.572l.005.003c.257.141.393.023.423-.276.03-.354-.075-.653-.332-.882-1.445-1.283-2.353-2.96-3.17-4.699a12.891 12.891 0 01-1.172-4.25c-.106-1.126.083-2.22.288-3.314.098-.496.196-1 .227-1.511.068-1.016-.273-1.874-1.112-2.417-1.037-.669-1.96-1.472-2.7-2.48.007.024-.03.048-.069.072zm2.215 3.574c.439.37.598.795.507 1.323-.056.34-.118.68-.18 1.021a34.006 34.006 0 00-.304 1.883c-.258 2.133.219 4.148 1.013 6.093.144.354.159.637.008.991-.689 1.622-1.437 3.204-2.405 4.676-1.256 1.905-3.01 2.786-5.204 2.786-.13 0-.259.002-.387.005-.3.005-.597.01-.899-.012a.6.6 0 01-.423-.237c-.704-.991-.583-3.046.226-3.951.091-.102.296-.197.409-.157.086.032.147.168.204.294l.038.083c.031.065.054.137.076.208.038.119.075.236.15.32.137.165.372.401.523.37.159-.032.317-.323.386-.528.068-.197.045-.44.007-.645a18.314 18.314 0 00-.192-.86c-.12-.502-.241-1.003-.284-1.51-.205-2.274-.008-4.51.937-6.611.22-.48.47-.968.795-1.378.34-.44.764-.826 1.195-1.173.442-.361.898-.704 1.354-1.046.309-.231.617-.463.922-.701.34-.27.677-.546 1.02-.827l.508-.417zm-16.255 5.595l-.589-.18a29.4 29.4 0 00-.198.46c-.11.262-.223.526-.346.783-.749 1.574-1.732 2.944-3.253 3.826-.12.07-.204.251-.25.4-.362 1.268-.816 2.48-1.655 3.504-.061.078-.114.22-.091.307.264.873.537 1.747.832 2.605.053.15.211.291.355.378.537.315 1.074.622 1.626.913.182.094.394.181.59.181 1.6.012 3.195.01 4.792.009l1.6-.001h.468a5.103 5.103 0 01-.131-.315c-.078-.198-.146-.373-.262-.504a5.7 5.7 0 00-.96-.873 10.09 10.09 0 00-1.035-.608l-.29-.156c-.377-.212-.544-.527-.513-.968a4.92 4.92 0 01.028-.315l.017-.157c.023-.239.052-.478.08-.717.066-.543.132-1.088.132-1.63 0-1.125-.484-2.093-1.173-2.943 1.195-.929 1.43-2.243 1.543-3.597-.454-.136-.884-.268-1.317-.402z" fill="#F58021"/></svg>