<svg width="69" height="61" viewBox="0 0 69 61" fill="none" xmlns="http://www.w3.org/2000/svg"><path fill-rule="evenodd" clip-rule="evenodd" d="M48.198 26.951c.624 1.334 1.248 2.669 1.894 4.062-.163.134-.328.272-.496.412l-.001.001c-.38.318-.773.646-1.182.957-.454.343-.904.691-1.355 1.04-1.113.86-2.224 1.72-3.387 2.502-4.186 2.822-8.804 3.967-13.773 3.518-1.214-.106-2.496-.543-3.006-.909.294-2.124.578-4.19.861-6.254v-.004a1.138 1.138 0 00-.107-.03.899.899 0 01-.108-.029l-.33.7a91.91 91.91 0 01-.827 1.733c-.736 1.512-1.229 3.119-1.724 4.73-.138.45-.276.9-.42 1.35-.908 2.798-2.53 4.947-5.287 5.998-.136.059-.25.295-.306.472-.111.367-.21.739-.309 1.11-.133.5-.266 1-.429 1.488-.624 1.889-1.792 3.353-3.37 4.475a38.425 38.425 0 00-2.075 1.546c-.58.46-.556.661.01 1.122l.335.267c.355.283.708.564 1.027.878.522.52.76 1.18.567 1.937-.045.177-.306.413-.465.413-3.72.023-7.453.023-11.175.012-.136 0-.329-.048-.408-.142a32.93 32.93 0 00-.348-.432c-.419-.517-.842-1.039-1.16-1.61-.205-.367-.228-.98-.092-1.394 1.316-4.168 3.007-8.123 6.195-11.157.136-.13.215-.414.227-.614.08-3 .42-5.975 1.157-8.867.635-2.504 1.316-5.006 2.519-7.309 2.212-4.203 5.07-7.71 9.461-9.599 3.778-1.618 7.465-1.37 11.062.543.494.265.94.628 1.375.982.205.167.407.331.61.482-.408-.92-1.123-1.676-1.894-2.373a188.66 188.66 0 012.183-.844c3.217-1.228 6.408-2.446 9.23-4.41.124.45.246.904.369 1.361.157.587.316 1.177.482 1.768.045.142.136.271.25.39-.227-1.465-.227-2.929.306-4.275.499-1.275 1.1-2.562 1.872-3.672 1.894-2.692 4.175-5.03 6.716-7.072.102-.083.204-.165.318-.248.182-.12.362-.25.543-.38.878-.626 1.765-1.26 2.894-1.025 1.86.378 3.415 1.393 4.482 3.058.306.472.658.803 1.145.98 1.271.46 2.224 1.252 2.837 2.539.222.47.542.886.863 1.303.154.201.309.402.453.61.295.424.352.779.022 1.274-.272.414-.408.969-.487 1.476-.102.602.124.992.737 1.323 1.6.85 2.53 2.75 1.645 4.675-.147.319-.284.638-.408.968-.59 1.582-1.713 2.137-3.256 1.582l-.078-.026c-.08-.027-.158-.053-.217-.08-.284.413-.568.815-.874 1.24a1.965 1.965 0 00-.11-.127c-.038-.041-.06-.065-.06-.086.09-1.015-.5-1.617-1.157-2.231-3.075-2.881-6.842-2.361-9.417-.697.29-.06.577-.128.863-.194.543-.126 1.083-.252 1.633-.337 3.267-.472 6.104 1.05 7.613 4.097 1.044 2.102 1.78 4.298 1.6 6.73l-.003.028c-.033.477-.07.996-.259 1.412-.658 1.464-.453 2.94-.09 4.393l.067.27c.34 1.38.69 2.797 1.34 4.015 2.507 4.688 2.711 9.753 2.53 14.889-.08 2.208-.76 4.168-2.508 5.596-.975.803-2.02 1.358-3.324 1.252a10.362 10.362 0 00-1.815 0c-1.135.13-1.917-.46-2.587-1.287-.726-.885-1.055-1.913-.85-3.07.056-.307.271-.684.521-.826.314-.173.542.067.774.31.037.04.074.078.111.115.35.352.812.61 1.252.858l.007.004c.386.212.59.035.636-.414.045-.53-.114-.98-.5-1.322-2.166-1.924-3.528-4.44-4.753-7.049a19.335 19.335 0 01-1.759-6.375c-.159-1.689.125-3.33.431-4.971.148-.744.295-1.5.34-2.267.103-1.523-.408-2.81-1.667-3.625-1.554-1.003-2.938-2.208-4.05-3.719.011.036-.045.07-.102.106zm3.323 5.363c.658.555.896 1.192.76 1.983-.084.512-.176 1.022-.268 1.532a51.59 51.59 0 00-.458 2.825c-.386 3.2.33 6.222 1.52 9.139.216.53.239.956.012 1.487-1.033 2.432-2.156 4.806-3.608 7.014-1.883 2.857-4.515 4.18-7.805 4.18-.195 0-.388.002-.581.006-.45.007-.896.015-1.348-.019a.901.901 0 01-.635-.354c-1.055-1.487-.874-4.569.34-5.927.136-.153.442-.295.613-.236.129.048.22.253.305.442l.058.125c.046.097.08.204.114.311.057.178.113.354.226.48.204.248.556.602.783.555.238-.047.476-.484.578-.791.103-.296.069-.662.012-.969-.082-.432-.186-.86-.289-1.29-.18-.753-.36-1.503-.426-2.263-.306-3.413-.011-6.766 1.407-9.918.329-.72.703-1.453 1.191-2.066.51-.662 1.146-1.24 1.793-1.76.663-.542 1.347-1.055 2.032-1.57.462-.347.925-.694 1.383-1.05a112.1 112.1 0 001.528-1.241c.252-.207.506-.416.763-.625zm-24.384 8.392l-.882-.271c-.1.228-.199.459-.297.69-.166.394-.334.79-.52 1.175-1.123 2.362-2.598 4.416-4.878 5.739-.181.106-.306.377-.374.602-.545 1.9-1.226 3.719-2.485 5.254-.09.118-.17.33-.136.46.397 1.31.805 2.621 1.248 3.908.08.225.318.437.533.567.806.472 1.611.933 2.44 1.37.272.141.59.271.884.271 2.4.018 4.792.016 7.188.014l2.399-.002h.703a7.698 7.698 0 01-.197-.472c-.116-.297-.22-.56-.393-.756a8.55 8.55 0 00-1.44-1.31c-.49-.344-1.023-.629-1.553-.912a52.5 52.5 0 01-.433-.234c-.567-.319-.817-.79-.771-1.452.007-.157.025-.315.043-.472l.025-.236c.034-.358.078-.717.12-1.076.099-.814.197-1.632.197-2.443 0-1.688-.726-3.14-1.758-4.416 1.792-1.393 2.144-3.365 2.314-5.395-.682-.204-1.326-.403-1.977-.603z" fill="#20113D"/></svg>